HIERARCHY
ROOT Hips
{
	OFFSET -3.958830 18.904000 13.208200
	CHANNELS 6 Xposition Yposition Zposition Zrotation Yrotation Xrotation 
	JOINT LHipJoint
	{
		OFFSET 0.000000 0.000000 0.000000
		CHANNELS 3 Zrotation Yrotation Xrotation
		JOINT LeftUpLeg
		{
			OFFSET 1.800000 -1.400000 0.085000
			CHANNELS 3 Zrotation Yrotation Xrotation
			JOINT LeftLeg
			{
				OFFSET 2.215000 -6.000000 0.000000
				CHANNELS 3 Zrotation Yrotation Xrotation
				JOINT LeftFoot
				{
					OFFSET 2.500000 -6.900000 0.000000
					CHANNELS 3 Zrotation Yrotation Xrotation
					JOINT LeftToeBase
					{
						OFFSET 0.200000 -0.500000 1.950000
						CHANNELS 3 Zrotation Yrotation Xrotation
						End Site
						{
							OFFSET 0.000000 0.000000 0.000000
						}
					}
				}
			}
		}
	}
	JOINT RHipJoint
	{
		OFFSET 0.000000 0.000000 0.000000
		CHANNELS 3 Zrotation Yrotation Xrotation
		JOINT RightUpLeg
		{
			OFFSET -1.800000 -1.400000 0.085000
			CHANNELS 3 Zrotation Yrotation Xrotation
			JOINT RightLeg
			{
				OFFSET -2.215000 -6.000000 0.000000
				CHANNELS 3 Zrotation Yrotation Xrotation
				JOINT RightFoot
				{
					OFFSET -2.500000 -6.900000 0.000000
					CHANNELS 3 Zrotation Yrotation Xrotation
					JOINT RightToeBase
					{
						OFFSET -0.200000 -0.500000 1.950000
						CHANNELS 3 Zrotation Yrotation Xrotation
						End Site
						{
							OFFSET 0.000000 0.000000 0.000000
						}
					}
				}
			}
		}
	}
	JOINT LowerBack
	{
		OFFSET 0.000000 0.000000 0.000000
		CHANNELS 3 Zrotation Yrotation Xrotation
		JOINT Spine
		{
			OFFSET -0.087000 1.940000 -0.288900
			CHANNELS 3 Zrotation Yrotation Xrotation
			JOINT Spine1
			{
				OFFSET 0.000000 1.950000 0.060000
				CHANNELS 3 Zrotation Yrotation Xrotation
				JOINT Neck
				{
					OFFSET 0.000000 0.000000 0.000000
					CHANNELS 3 Zrotation Yrotation Xrotation
					JOINT Neck1
					{
						OFFSET 0.000000 1.600000 0.340000
						CHANNELS 3 Zrotation Yrotation Xrotation
						JOINT Head
						{
							OFFSET 0.000000 1.667000 -0.240000
							CHANNELS 3 Zrotation Yrotation Xrotation
							End Site
							{
								OFFSET 0.000000 0.000000 0.000000
							}
						}
					}
				}
				JOINT LeftShoulder
				{
					OFFSET 0.000000 0.000000 0.000000
					CHANNELS 3 Zrotation Yrotation Xrotation
					JOINT LeftArm
					{
						OFFSET 2.700000 1.550000 -0.730000
						CHANNELS 3 Zrotation Yrotation Xrotation
						JOINT LeftForeArm
						{
							OFFSET 5.450000 0.000000 0.000000
							CHANNELS 3 Zrotation Yrotation Xrotation
							JOINT LeftHand
							{
								OFFSET 3.450000 0.000000 0.000000
								CHANNELS 3 Zrotation Yrotation Xrotation
								JOINT LeftHandIndex1
								{
									OFFSET 0.750000 0.000000 0.000000
									CHANNELS 3 Zrotation Yrotation Xrotation
									End Site
									{
										OFFSET 0.000000 0.000000 0.000000
									}
								}
							}
						}
					}
				}
				JOINT RightShoulder
				{
					OFFSET 0.000000 0.000000 0.000000
					CHANNELS 3 Zrotation Yrotation Xrotation
					JOINT RightArm
					{
						OFFSET -2.700000 1.550000 -0.730000
						CHANNELS 3 Zrotation Yrotation Xrotation
						JOINT RightForeArm
						{
							OFFSET -5.450000 0.000000 0.000000
							CHANNELS 3 Zrotation Yrotation Xrotation
							JOINT RightHand
							{
								OFFSET -3.450000 0.000000 0.000000
								CHANNELS 3 Zrotation Yrotation Xrotation
								JOINT RightHandIndex1
								{
									OFFSET -0.750000 0.000000 0.000000
									CHANNELS 3 Zrotation Yrotation Xrotation
									End Site
									{
										OFFSET 0.000000 0.000000 0.000000
									}
								}
							}
						}
					}
				}
			}
		}
	}
}
MOTION
Frames: 8
Frame Time: 0.016667
0.093630 16.581600 3.733960 -7.248443 -6.554143 1.652923 -15.317561 12.144081 2.239101 6.462248 -2.088011 -10.523484 -6.747084 3.983253 1.902642 -0.837260 3.906725 3.349260 0.123240 -0.101000 0.132510 18.709028 -7.181111 6.333163 13.879206 19.246734 -66.605927 -13.556959 -4.648174 82.114137 -2.051764 -12.174690 0.347130 0.135020 0.414330 0.131480 -3.996758 -4.401562 -8.989042 15.609563 -8.723234 16.644931 -3.548565 -4.364671 9.108045 1.629342 -5.128481 -13.006436 -12.854642 5.238241 30.205707 -4.443280 5.419350 -10.410960 -29.991592 -25.943700 6.072714 -40.097962 -22.521451 -12.083465 49.130209 -67.885542 -36.920077 -3.812116 1.986795 0.560070 0.233890 -0.104410 0.059040 26.525571 25.227113 12.263043 55.448119 -6.260520 -9.950746 1.793106 15.930686 -1.010827 1.996753 -1.140295 -0.462120 0.428520 0.240990 -0.241420 
0.091180 16.582020 3.778810 -7.163176 -7.099699 1.645396 -15.327290 12.245313 2.296125 6.454551 -2.012650 -9.784739 -6.845425 4.040043 1.745060 -0.800314 3.972317 3.336010 0.107230 -0.116160 0.124100 18.674300 -7.259166 6.222350 14.018630 18.298572 -65.655607 -13.254092 -4.149131 77.278041 -1.831902 -11.343603 0.563450 0.120500 0.421090 0.138980 -3.930815 -4.477146 -8.957431 15.192017 -8.580373 16.626951 -3.386669 -4.429513 9.090021 1.708627 -4.774721 -12.974663 -12.217885 5.155832 30.253155 -4.689620 5.672820 -9.982680 -30.740054 -26.006670 6.091877 -39.504083 -23.025931 -11.807808 47.673097 -66.558109 -34.970723 -3.838431 2.059362 0.544870 0.245570 -0.108420 0.059300 27.098412 24.979958 12.405572 54.985206 -7.051071 -10.264768 2.557017 16.823459 -1.014672 1.988628 -1.148121 -0.456580 0.415220 0.240500 -0.236110 
0.088120 16.567170 3.834890 -6.959266 -7.338862 1.878484 -15.340555 12.349656 2.347081 6.144186 -1.924059 -9.168386 -6.774553 4.049353 1.525252 -0.779368 4.023240 3.336762 0.096050 -0.130030 0.108500 18.640972 -7.351405 6.060500 14.092525 17.158204 -64.588642 -12.771162 -3.850564 72.032798 -1.588225 -10.431569 0.814592 0.116020 0.449640 0.148070 -3.865525 -4.563166 -8.861259 14.805484 -8.459583 15.977620 -3.175915 -4.642703 9.000583 1.646838 -4.612207 -12.609040 -11.775435 5.076004 29.679400 -4.706080 5.684900 -9.300960 -30.862494 -25.251306 5.924553 -40.408665 -23.896892 -11.047506 45.922216 -65.428845 -33.184551 -3.854939 2.122864 0.521020 0.270630 -0.128500 0.070170 27.333488 23.887702 12.106638 54.607587 -7.517064 -10.382899 3.490790 17.279359 -1.004172 1.982013 -1.162026 -0.458350 0.411150 0.241840 -0.226410 
0.082810 16.550700 3.893450 -6.584145 -7.372412 1.900834 -15.351854 12.545483 2.418565 5.726129 -1.816053 -8.917256 -6.713045 4.149896 1.984750 -0.776807 4.065462 3.333550 0.071610 -0.163970 0.089710 18.583313 -7.538450 5.808680 14.131705 15.468719 -62.426467 -12.071453 -3.718473 65.791794 -1.304850 -9.308688 1.138779 0.100760 0.477820 0.156270 -3.755929 -4.681822 -8.742437 14.010205 -8.308361 15.490659 -2.700382 -4.940306 8.868109 1.535215 -4.365485 -12.297276 -11.309011 5.018286 29.590100 -4.690880 5.715190 -8.735600 -31.041598 -24.538694 5.880592 -41.732850 -24.603085 -10.371096 44.135040 -64.584718 -31.691759 -3.874124 2.166724 0.511610 0.291610 -0.146730 0.071460 27.755682 22.865100 11.755639 54.160019 -7.732598 -10.301101 3.915245 17.227485 -0.965113 1.979607 -1.157139 -0.468300 0.412100 0.256700 -0.223370 
0.073930 16.530510 3.962810 -6.082227 -7.573148 1.938268 -15.362803 12.774894 2.494067 5.217633 -1.684259 -8.879401 -6.625802 4.290040 2.806712 -0.768502 4.080267 3.333973 0.049890 -0.189850 0.070180 18.515221 -7.776619 5.511913 14.102335 13.672660 -59.429784 -11.087497 -3.648467 58.860790 -1.001280 -8.030065 1.530529 0.085400 0.497470 0.162510 -3.628617 -4.775162 -8.595765 13.041769 -8.001496 14.855945 -2.177881 -5.129241 8.490973 1.458436 -4.091041 -11.788744 -10.776522 4.972577 29.604453 -4.732200 5.863370 -8.008260 -31.184322 -23.301864 5.680937 -43.873280 -25.267729 -9.383180 41.303122 -64.121908 -29.793172 -3.869773 2.230835 0.495190 0.310010 -0.163490 0.073830 28.090706 21.393973 11.150995 53.859369 -7.672923 -10.001261 4.289976 16.584684 -0.917318 1.995980 -1.154897 -0.470520 0.401940 0.264170 -0.218020 
0.058850 16.505040 4.041720 -5.455157 -7.714966 2.022861 -15.372035 13.015195 2.562702 4.624768 -1.559175 -9.060395 -6.507472 4.453758 3.962775 -0.742416 4.071172 3.338497 0.041690 -0.193700 0.042890 18.446257 -8.045835 5.175975 13.761527 11.823910 -56.131800 -9.773376 -3.653234 51.694863 -0.702511 -6.708546 1.957545 0.077340 0.517220 0.174640 -3.501522 -4.845011 -8.406514 11.957497 -7.745184 13.900747 -1.821462 -5.367201 8.062556 1.351861 -3.794676 -11.137660 -10.189818 5.049596 29.579226 -4.344200 5.970020 -6.860850 -30.942726 -21.690001 5.406703 -46.550093 -25.755836 -8.177729 37.560179 -63.908484 -27.525383 -3.855987 2.344402 0.458050 0.330070 -0.181800 0.089400 28.103504 19.532177 10.225227 53.993162 -7.091438 -9.417142 4.480122 15.071693 -0.894162 2.037923 -1.169740 -0.454110 0.375980 0.258400 -0.198680 
0.044820 16.469720 4.130870 -4.830888 -7.959137 2.466948 -15.378689 13.197174 2.599952 3.984325 -1.470750 -9.537613 -6.420012 4.617114 5.215544 -0.710676 4.062891 3.354213 0.018710 -0.199950 -0.019330 18.397145 -8.289206 4.850469 13.147576 10.260756 -53.057533 -8.281143 -3.595381 44.674619 -0.410046 -5.463876 2.390553 0.075150 0.577980 0.184240 -3.415094 -4.850058 -8.153542 11.215927 -7.496934 12.287735 -1.636225 -5.565785 7.588871 1.135494 -3.582507 -10.221703 -9.565033 5.083983 28.834438 -3.677570 5.825390 -4.842960 -29.968172 -19.361163 4.852043 -50.274773 -26.567167 -6.124669 32.943284 -63.294752 -24.561311 -3.877560 2.486971 0.381000 0.381190 -0.232790 0.116660 27.586636 16.936766 8.903335 54.414954 -6.147674 -8.584956 4.749030 12.937480 -0.909812 2.089906 -1.198522 -0.440210 0.356970 0.259810 -0.158900 
0.030600 16.429490 4.226180 -4.183597 -8.241688 3.002643 -15.392057 13.375555 2.627232 3.345257 -1.429000 -10.157535 -6.361973 4.819557 6.725027 -0.690412 4.088751 3.365075 -0.011600 -0.219050 -0.078080 18.348416 -8.504003 4.520873 12.209860 8.822090 -50.021687 -6.423000 -3.582738 37.860661 -0.148069 -4.323993 2.807686 0.073760 0.648180 0.186000 -3.320983 -4.899006 -7.872556 10.606873 -7.378375 10.648756 -1.583158 -5.807639 6.731975 0.898947 -3.460272 -9.014063 -9.091811 5.001014 27.759972 -3.226350 5.601180 -3.037430 -28.615453 -16.037928 3.900330 -54.653046 -27.603330 -3.119812 27.563689 -62.064127 -20.808480 -3.928158 2.616723 0.310490 0.435450 -0.289500 0.142680 26.733707 13.358498 7.193366 55.371009 -5.146988 -7.914276 4.559198 11.153958 -0.954873 2.137367 -1.214403 -0.443460 0.355750 0.265950 -0.124610 
